<?xml version="1.0" encoding="utf-8"?>
<!-- Uploaded to: SVG Repo, www.svgrepo.com, Generator: SVG Repo Mixer Tools -->
<svg width="800px" height="800px" viewBox="0 0 1024 1024" class="icon"  version="1.1" xmlns="http://www.w3.org/2000/svg"><path d="M640-0.032h-256c-160 0-256 64-256 256v320h768v-320c0-192-96-256-256-256z" fill="#EAEAEA" /><path d="M960 352h-64a64 64 0 0 0-64 64v352H192V416a64 64 0 0 0-64-64H64a64 64 0 0 0-64 64v480a64 64 0 0 0 64 64h896a64 64 0 0 0 64-64V416a64 64 0 0 0-64-64z" fill="#84BF56" /><path d="M64 384h64a64 64 0 0 1 64 64v-32a64 64 0 0 0-64-64H64a64 64 0 0 0-64 64v32a64 64 0 0 1 64-64zM960 352h-64a64 64 0 0 0-64 64v32a64 64 0 0 1 64-64h64a64 64 0 0 1 64 64v-32a64 64 0 0 0-64-64z" fill="#FFFFFF" /><path d="M896 704a64 64 0 0 1-64 64H192a64 64 0 0 1-64-64v-64a64 64 0 0 1 64-64h640a64 64 0 0 1 64 64v64z" fill="#EAEAEA" /><path d="M832 768H192a64 64 0 0 1-64-64v32a64 64 0 0 0 64 64h640a64 64 0 0 0 64-64v-32a64 64 0 0 1-64 64z" fill="" /><path d="M192 544h640v32H192z" fill="" /><path d="M640 191.968m-32 0a32 32 0 1 0 64 0 32 32 0 1 0-64 0Z" fill="" /><path d="M640 447.968m-32 0a32 32 0 1 0 64 0 32 32 0 1 0-64 0Z" fill="" /><path d="M512 319.968m-32 0a32 32 0 1 0 64 0 32 32 0 1 0-64 0Z" fill="" /><path d="M384 191.968m-32 0a32 32 0 1 0 64 0 32 32 0 1 0-64 0Z" fill="" /><path d="M384 447.968m-32 0a32 32 0 1 0 64 0 32 32 0 1 0-64 0Z" fill="" /><path d="M96 960h128v64H96zM800 960h128v64h-128z" fill="#434854" /><path d="M96 960h128v32H96zM800 960h128v32h-128z" fill="" /></svg>